<svg width="14" height="14" viewBox="0 0 14 14" fill="none" xmlns="http://www.w3.org/2000/svg">
<path d="M10.5194 9.69321L13.0178 12.191L12.1924 13.0165L9.69455 10.518C8.76515 11.2631 7.60914 11.6683 6.41797 11.6666C3.51997 11.6666 1.16797 9.31463 1.16797 6.41663C1.16797 3.51863 3.51997 1.16663 6.41797 1.16663C9.31597 1.16663 11.668 3.51863 11.668 6.41663C11.6697 7.60779 11.2644 8.76381 10.5194 9.69321ZM9.34922 9.26038C10.0895 8.49906 10.503 7.47854 10.5013 6.41663C10.5013 4.16029 8.67372 2.33329 6.41797 2.33329C4.16164 2.33329 2.33464 4.16029 2.33464 6.41663C2.33464 8.67238 4.16164 10.5 6.41797 10.5C7.47989 10.5016 8.5004 10.0882 9.26172 9.34788L9.34922 9.26038Z" fill="white" stroke="white" stroke-width="0.5"/>
</svg>
